<?xml version="1.0" standalone="no"?>
<!DOCTYPE svg PUBLIC "-//W3C//DTD SVG 20010904//EN"
 "http://www.w3.org/TR/2001/REC-SVG-20010904/DTD/svg10.dtd">
<svg version="1.0" xmlns="http://www.w3.org/2000/svg"
 width="135.000000pt" height="135.000000pt" viewBox="0 0 135.000000 135.000000"
 preserveAspectRatio="xMidYMid meet">
<metadata>
Created by potrace 1.11, written by Peter Selinger 2001-2013
</metadata>
<g transform="translate(0.000000,135.000000) scale(0.100000,-0.100000)"
fill="#000000" stroke="none">
<path d="M506 1309 c-81 -13 -158 -58 -181 -104 -25 -50 -32 -179 -15 -301
l11 -87 -35 -28 c-55 -46 -71 -102 -70 -249 1 -184 44 -307 115 -332 16 -6 36
-22 44 -37 17 -33 74 -74 135 -97 71 -27 238 -24 313 5 71 28 122 71 136 114
6 18 12 129 14 249 l3 216 54 89 55 88 0 125 c0 109 -3 131 -23 175 -41 90
-106 137 -229 169 -65 17 -240 20 -327 5z m-151 -819 c4 -84 3 -144 -3 -160
l-10 -25 -11 27 c-34 87 -41 315 -11 368 14 25 15 24 21 -25 4 -27 10 -111 14
-185z"/>
</g>
</svg>
